<svg width="200" height="33" viewBox="0 0 200 33" fill="none" xmlns="http://www.w3.org/2000/svg">
<path d="M22.256 10.528V22.768C19.952 24.448 17.048 25.288 13.544 25.288C9.656 25.288 6.5 24.172 4.076 21.94C1.652 19.708 0.44 16.672 0.44 12.832C0.44 9.04 1.7 6.004 4.22 3.724C6.764 1.444 9.98 0.303998 13.868 0.303998C16.604 0.303998 18.968 0.807998 20.96 1.816V7.36C18.656 6.04 16.292 5.38 13.868 5.38C11.588 5.38 9.776 6.064 8.432 7.432C7.088 8.776 6.416 10.576 6.416 12.832C6.416 15.112 7.076 16.924 8.396 18.268C9.716 19.612 11.516 20.284 13.796 20.284C14.828 20.284 15.848 20.128 16.856 19.816V15.244H12.932V10.528H22.256ZM29.998 6.748V10.132C30.334 9.076 30.886 8.236 31.654 7.612C32.446 6.964 33.358 6.64 34.39 6.64C34.966 6.64 35.422 6.688 35.758 6.784V11.752C35.182 11.488 34.522 11.356 33.778 11.356C32.65 11.356 31.738 11.776 31.042 12.616C30.346 13.432 29.998 14.524 29.998 15.892V25H24.742L24.778 6.748H29.998ZM46.8502 14.2V13.768C46.6822 11.632 45.7462 10.564 44.0422 10.564C43.2022 10.564 42.4582 10.876 41.8102 11.5C41.1622 12.1 40.7302 13 40.5142 14.2H46.8502ZM50.6302 19.564V23.956C49.3822 24.772 47.4742 25.18 44.9062 25.18C41.9062 25.18 39.5662 24.316 37.8862 22.588C36.2302 20.836 35.4022 18.592 35.4022 15.856C35.4022 12.952 36.2062 10.684 37.8142 9.052C39.4462 7.396 41.4502 6.568 43.8262 6.568C46.2742 6.568 48.2062 7.288 49.6222 8.728C51.0382 10.144 51.7462 12.268 51.7462 15.1C51.7462 15.652 51.6502 16.6 51.4582 17.944H40.7302C41.0902 18.952 41.7142 19.732 42.6022 20.284C43.4902 20.836 44.5582 21.112 45.8062 21.112C47.6542 21.112 49.2622 20.596 50.6302 19.564ZM64.2455 14.2V13.768C64.0775 11.632 63.1415 10.564 61.4375 10.564C60.5975 10.564 59.8535 10.876 59.2055 11.5C58.5575 12.1 58.1255 13 57.9095 14.2H64.2455ZM68.0255 19.564V23.956C66.7775 24.772 64.8695 25.18 62.3015 25.18C59.3015 25.18 56.9615 24.316 55.2815 22.588C53.6255 20.836 52.7975 18.592 52.7975 15.856C52.7975 12.952 53.6015 10.684 55.2095 9.052C56.8415 7.396 58.8455 6.568 61.2215 6.568C63.6695 6.568 65.6015 7.288 67.0175 8.728C68.4335 10.144 69.1415 12.268 69.1415 15.1C69.1415 15.652 69.0455 16.6 68.8535 17.944H58.1255C58.4855 18.952 59.1095 19.732 59.9975 20.284C60.8855 20.836 61.9535 21.112 63.2015 21.112C65.0495 21.112 66.6575 20.596 68.0255 19.564ZM76.3488 6.748V9.844C76.8048 8.836 77.5008 8.044 78.4368 7.468C79.3968 6.868 80.5368 6.568 81.8568 6.568C83.7288 6.568 85.1928 7.132 86.2488 8.26C87.3048 9.364 87.8328 10.996 87.8328 13.156V25H82.5768V14.128C82.5768 13.048 82.3248 12.232 81.8208 11.68C81.3168 11.104 80.6088 10.816 79.6968 10.816C78.7368 10.816 77.9328 11.2 77.2848 11.968C76.6608 12.712 76.3488 13.84 76.3488 15.352V25H71.0928V6.748H76.3488ZM103.136 20.572H112.64V25H97.5556V0.735999H112.496V5.164H103.136V10.672H111.488V15.064H103.136V20.572ZM120.414 6.748V9.844C120.87 8.836 121.566 8.044 122.502 7.468C123.462 6.868 124.602 6.568 125.922 6.568C127.794 6.568 129.258 7.132 130.314 8.26C131.37 9.364 131.898 10.996 131.898 13.156V25H126.642V14.128C126.642 13.048 126.39 12.232 125.886 11.68C125.382 11.104 124.674 10.816 123.762 10.816C122.802 10.816 121.998 11.2 121.35 11.968C120.726 12.712 120.414 13.84 120.414 15.352V25H115.158V6.748H120.414ZM144.788 14.2V13.768C144.62 11.632 143.684 10.564 141.98 10.564C141.14 10.564 140.396 10.876 139.748 11.5C139.1 12.1 138.668 13 138.452 14.2H144.788ZM148.568 19.564V23.956C147.32 24.772 145.412 25.18 142.844 25.18C139.844 25.18 137.504 24.316 135.824 22.588C134.168 20.836 133.34 18.592 133.34 15.856C133.34 12.952 134.144 10.684 135.752 9.052C137.384 7.396 139.388 6.568 141.764 6.568C144.212 6.568 146.144 7.288 147.56 8.728C148.976 10.144 149.684 12.268 149.684 15.1C149.684 15.652 149.588 16.6 149.396 17.944H138.668C139.028 18.952 139.652 19.732 140.54 20.284C141.428 20.836 142.496 21.112 143.744 21.112C145.592 21.112 147.2 20.596 148.568 19.564ZM156.856 6.748V10.132C157.192 9.076 157.744 8.236 158.512 7.612C159.304 6.964 160.216 6.64 161.248 6.64C161.824 6.64 162.28 6.688 162.616 6.784V11.752C162.04 11.488 161.38 11.356 160.636 11.356C159.508 11.356 158.596 11.776 157.9 12.616C157.204 13.432 156.856 14.524 156.856 15.892V25H151.6L151.636 6.748H156.856ZM171.26 20.212C172.388 20.212 173.264 19.792 173.888 18.952C174.536 18.088 174.86 17.056 174.86 15.856C174.86 12.592 173.672 10.96 171.296 10.96C170.24 10.96 169.412 11.368 168.812 12.184C168.212 13 167.912 14.128 167.912 15.568C167.912 17.08 168.2 18.232 168.776 19.024C169.352 19.816 170.18 20.212 171.26 20.212ZM174.86 6.748H180.08V23.236C180.08 26.164 179.204 28.36 177.452 29.824C175.7 31.312 173.504 32.056 170.864 32.056C168.296 32.056 166.052 31.6 164.132 30.688V25.324C165.812 26.668 167.876 27.34 170.324 27.34C171.908 27.34 173.06 27.004 173.78 26.332C174.5 25.66 174.86 24.604 174.86 23.164V21.94C173.804 23.572 172.124 24.388 169.82 24.388C167.804 24.388 166.064 23.644 164.6 22.156C163.16 20.668 162.44 18.46 162.44 15.532C162.44 12.94 163.136 10.804 164.528 9.124C165.944 7.42 167.792 6.568 170.072 6.568C172.232 6.568 173.828 7.432 174.86 9.16V6.748ZM187.495 24.712L180.439 6.748H186.163L188.143 12.436C188.647 13.9 189.055 15.16 189.367 16.216C189.703 17.272 189.907 17.968 189.979 18.304L190.087 18.808C190.351 17.848 190.999 15.724 192.031 12.436L193.831 6.748H199.231L192.643 24.46C190.747 29.572 187.855 32.128 183.967 32.128C183.223 32.128 182.551 32.068 181.951 31.948V27.772C182.335 27.868 182.743 27.916 183.175 27.916C185.167 27.916 186.607 26.848 187.495 24.712Z" fill="#3B3B3B"/>
</svg>
